<?xml version="1.0" standalone="no"?>
<!DOCTYPE svg PUBLIC "-//W3C//DTD SVG 20010904//EN"
 "http://www.w3.org/TR/2001/REC-SVG-20010904/DTD/svg10.dtd">
<svg version="1.0" xmlns="http://www.w3.org/2000/svg"
 width="512.000000pt" height="512.000000pt" viewBox="0 0 512.000000 512.000000"
 preserveAspectRatio="xMidYMid meet">
<metadata>
Created by potrace 1.16, written by Peter Selinger 2001-2019
</metadata>
<g transform="translate(0.000000,512.000000) scale(0.100000,-0.100000)"
fill="#3d85c6" stroke="none">
<path d="M2230 5103 c-181 -24 -439 -88 -570 -141 -14 -6 -49 -20 -77 -31
-219 -88 -446 -223 -633 -374 -96 -78 -309 -291 -387 -387 -75 -92 -179 -243
-227 -330 -57 -101 -146 -290 -166 -350 -5 -14 -20 -56 -35 -95 -36 -95 -90
-315 -112 -455 -26 -164 -26 -596 0 -760 22 -140 76 -360 112 -455 15 -38 30
-81 35 -95 11 -34 39 -98 89 -200 127 -264 265 -455 491 -681 147 -147 245
-228 401 -332 144 -95 373 -214 479 -248 14 -4 57 -19 95 -34 95 -36 315 -90
455 -112 164 -26 596 -26 760 0 140 22 360 76 455 112 39 15 81 30 95 34 104
34 338 155 479 248 156 104 254 185 402 332 147 148 228 246 332 402 95 144
214 373 248 479 4 14 19 57 34 95 36 95 90 315 112 455 14 90 18 173 18 380 0
207 -4 290 -18 380 -22 140 -76 360 -112 455 -15 39 -30 81 -35 95 -18 57
-109 247 -166 350 -48 86 -152 237 -227 330 -78 96 -291 309 -387 387 -364
295 -808 484 -1285 547 -142 18 -513 18 -655 -1z m1070 -1128 c66 -33 145
-112 170 -168 11 -24 22 -70 26 -103 6 -54 11 -63 55 -106 59 -57 76 -109 59
-175 -14 -60 -41 -100 -144 -217 -56 -64 -98 -124 -120 -170 -147 -308 -145
-305 -272 -454 -29 -33 -77 -101 -108 -151 -75 -121 -280 -503 -322 -599 -41
-93 -41 -92 85 -121 237 -55 650 -93 866 -80 85 5 127 -10 155 -56 34 -56 41
-123 23 -222 -23 -129 -57 -189 -123 -223 -59 -29 -114 -31 -214 -6 -148 38
-168 39 -300 20 -119 -17 -131 -17 -317 0 -170 16 -220 17 -404 7 -306 -16
-408 -15 -496 8 -41 11 -135 29 -209 41 -173 26 -232 43 -267 79 -39 38 -51
81 -68 241 -8 74 -19 151 -25 170 -31 106 18 278 89 314 14 8 69 28 122 45
111 36 137 59 170 146 15 40 40 79 74 115 107 114 431 500 525 625 118 158
260 389 247 402 -5 4 -236 -48 -364 -82 -50 -13 -143 -48 -205 -76 -125 -57
-240 -99 -273 -99 -11 0 -38 -9 -60 -20 -22 -11 -59 -20 -82 -20 -107 0 -191
169 -193 387 0 142 34 214 118 245 51 19 94 55 140 116 16 22 34 33 60 37 20
4 79 18 130 32 70 19 105 24 140 19 121 -18 148 -18 212 0 48 13 108 18 230
20 149 2 177 5 285 34 77 20 164 35 243 41 68 5 137 16 155 24 45 21 123 12
187 -20z"/>
</g>
</svg>
